<?xml version="1.0" standalone="no"?>
<!DOCTYPE svg PUBLIC "-//W3C//DTD SVG 20010904//EN"
 "http://www.w3.org/TR/2001/REC-SVG-20010904/DTD/svg10.dtd">
<svg version="1.0" xmlns="http://www.w3.org/2000/svg"
 width="553.000000pt" height="451.000000pt" viewBox="0 0 553.000000 451.000000"
 preserveAspectRatio="xMidYMid meet">

<g transform="translate(0.000000,451.000000) scale(0.100000,-0.100000)"
fill="#000000" stroke="none">
<path d="M2778 4300 c-251 -35 -497 -200 -596 -399 -52 -104 -54 -136 -4 -56
65 101 201 225 248 225 4 0 -16 -24 -44 -54 -81 -85 -127 -166 -168 -296 -20
-61 -26 -268 -11 -373 l9 -59 -22 22 c-11 11 -30 35 -41 53 l-20 32 6 -40 c10
-61 54 -145 103 -197 49 -52 142 -114 212 -142 24 -10 99 -44 165 -77 124 -62
194 -115 241 -184 25 -38 26 -39 20 -10 -13 56 -49 119 -98 169 -26 27 -48 51
-48 52 0 2 21 13 48 26 79 38 147 84 180 123 34 38 44 69 15 43 -57 -50 -204
-98 -299 -98 -166 0 -328 107 -389 256 -25 62 -28 81 -28 189 -1 130 11 186
64 303 61 135 237 279 401 326 79 23 274 22 348 -2 181 -58 283 -192 267 -350
-8 -81 -23 -124 -62 -181 -41 -62 -33 -65 21 -8 68 71 106 155 120 266 6 48 8
52 20 36 26 -35 63 -151 74 -231 22 -150 -21 -288 -131 -424 l-53 -65 40 29
c59 44 91 84 129 161 46 93 65 169 72 290 16 298 -163 540 -467 629 -68 20
-232 28 -322 16z"/>
<path d="M3011 3646 c-7 -8 -2 -15 19 -24 30 -14 40 -36 40 -92 0 -77 -42 -71
-90 13 -28 49 -30 50 -30 22 0 -37 32 -91 76 -129 51 -43 70 -80 98 -194 33
-131 37 -322 6 -322 -20 0 -42 87 -54 218 -7 78 -17 146 -21 150 -4 4 -5 -67
-2 -158 5 -173 15 -223 66 -313 79 -141 115 -228 126 -304 4 -29 12 -53 17
-53 17 0 2 157 -22 225 -41 116 -60 209 -60 292 0 45 -5 115 -10 155 -6 40
-14 114 -20 163 -13 126 -39 316 -46 338 -4 14 -9 15 -19 7 -8 -6 -16 -7 -19
-2 -9 16 -45 21 -55 8z"/>
<path d="M3594 3567 c-3 -9 -4 -23 -1 -29 9 -27 -14 -159 -37 -205 -13 -26
-34 -70 -46 -98 -11 -27 -32 -71 -46 -96 -31 -60 -33 -93 -3 -55 43 55 45 30
12 -169 -14 -89 -61 -207 -125 -317 -15 -27 -25 -48 -21 -48 3 0 21 11 40 26
18 14 33 21 33 17 0 -19 -105 -213 -203 -375 -59 -97 -107 -179 -107 -183 0
-8 -99 -207 -145 -290 -56 -102 -163 -274 -197 -317 -43 -54 -25 -47 34 15 74
76 183 222 234 312 6 11 33 56 59 100 27 44 70 124 97 179 28 54 53 94 58 90
12 -13 -17 -330 -37 -398 -22 -76 -87 -165 -250 -346 -25 -28 -30 -52 -9 -44
7 3 67 60 133 128 90 93 128 139 155 193 45 88 55 138 67 328 6 83 14 164 19
180 6 17 20 66 32 110 12 44 33 103 45 130 68 149 117 332 140 520 3 28 10 70
14 95 5 25 17 86 27 135 9 50 21 97 25 106 4 9 18 62 29 117 21 102 19 148 -9
192 -9 12 -11 12 -17 -3z"/>
<path d="M2065 3458 c-41 -116 -19 -250 95 -573 17 -49 34 -114 37 -142 7 -60
18 -68 29 -21 16 75 63 109 114 83 86 -45 265 -282 358 -475 69 -142 86 -285
38 -303 -26 -10 -92 31 -147 91 -93 100 -163 238 -213 417 -36 128 -51 144
-41 45 9 -97 52 -226 125 -375 72 -146 137 -231 202 -263 58 -29 94 -24 145
21 20 18 34 27 32 21 -20 -55 -105 -232 -213 -444 -113 -224 -195 -415 -182
-427 3 -4 23 31 128 227 53 98 101 185 108 195 10 13 43 72 160 286 147 269
190 391 231 657 l11 72 30 -25 c35 -30 47 -26 26 7 -22 35 -38 110 -38 181 0
72 -9 127 -20 127 -4 0 -12 -30 -18 -67 -44 -280 -52 -285 -47 -33 3 118 1
244 -3 280 l-8 65 -7 -45 c-3 -25 -9 -124 -12 -221 -5 -170 -17 -266 -51 -394
-20 -74 -64 -185 -74 -185 -4 0 -18 28 -30 63 -57 156 -170 359 -251 451 -32
37 -32 38 -9 31 90 -26 219 -164 310 -330 l22 -40 -7 45 c-9 64 -40 160 -71
227 -54 113 -148 180 -402 287 -128 54 -254 153 -295 231 -33 64 -50 145 -43
206 5 40 3 59 -4 59 -6 0 -13 -6 -15 -12z"/>
<path d="M3303 3003 c-21 -8 -15 -20 15 -26 32 -7 49 -32 58 -85 7 -47 -13
-72 -57 -72 l-30 0 19 -25 c11 -14 23 -41 27 -62 l7 -37 18 42 c10 22 28 54
40 70 31 42 20 120 -25 168 -31 33 -46 38 -72 27z"/>
<path d="M2226 2547 c-8 -91 0 -188 24 -282 17 -68 26 -93 58 -165 12 -25 15
-59 13 -121 -4 -121 25 -246 121 -519 37 -106 50 -95 18 15 -11 39 -27 93 -35
120 -31 105 -51 253 -47 344 l2 34 95 -101 c93 -98 172 -169 180 -161 2 3 -12
22 -31 44 -49 57 -152 203 -186 266 -16 30 -36 63 -43 74 -16 26 -72 156 -90
210 -30 90 -44 154 -51 220 -10 101 -20 109 -28 22z"/>
<path d="M3105 1768 c-30 -52 -157 -231 -200 -283 -142 -173 -227 -257 -359
-356 l-60 -44 95 -3 c81 -2 105 1 169 24 139 49 310 170 310 220 0 10 -18 2
-57 -29 -68 -52 -211 -123 -268 -132 l-40 -7 66 68 c109 113 237 292 313 437
53 102 78 184 31 105z"/>
<path d="M3180 1494 c-1 -156 -108 -294 -329 -424 -41 -24 -69 -46 -63 -48 13
-4 122 40 178 73 46 27 160 117 182 143 10 14 12 13 12 -9 0 -37 -43 -120 -83
-163 -21 -21 -37 -40 -37 -42 0 -2 21 -5 48 -5 l47 -1 -50 -10 c-27 -5 -140
-11 -250 -11 -165 -2 -214 1 -280 17 -148 35 -136 38 -175 -54 -24 -59 -55
-127 -103 -230 -69 -150 -112 -270 -104 -293 2 -7 27 34 55 90 28 55 77 141
108 190 31 48 74 116 96 150 22 34 46 64 54 67 7 3 46 -2 86 -10 47 -10 139
-16 265 -17 106 -1 193 -5 193 -8 0 -24 -325 -26 -452 -3 -83 16 -91 16 -106
0 -11 -11 -13 -19 -6 -26 15 -15 328 -50 446 -50 57 0 138 8 198 20 56 11 119
20 140 20 36 0 40 -3 79 -64 45 -71 68 -93 56 -55 -4 13 -22 65 -41 114 -19
50 -41 106 -48 125 -13 34 -16 35 -72 39 l-59 4 50 11 c47 11 50 13 49 41 -1
17 -11 66 -23 110 -13 47 -26 130 -30 201 -4 66 -13 129 -19 140 -10 16 -11
11 -12 -32z"/>
<path d="M3380 631 c-8 -5 -46 -16 -85 -24 -281 -64 -676 -61 -908 8 -32 9
-64 15 -71 12 -12 -5 -106 -177 -106 -196 0 -23 218 -68 390 -80 148 -10 527
4 637 23 74 13 93 13 81 1 -3 -3 -64 -15 -134 -27 -191 -31 -586 -31 -761 0
-68 13 -134 27 -149 32 -32 13 -44 13 -44 0 0 -22 128 -69 258 -95 70 -14 134
-16 390 -12 395 5 483 21 571 105 l41 39 -21 69 c-11 38 -24 84 -29 103 -11
45 -31 58 -60 42z"/>
</g>
</svg>
